<?xml version="1.0" encoding="utf-8" standalone="no"?>
<!DOCTYPE svg PUBLIC "-//W3C//DTD SVG 1.1//EN"
  "http://www.w3.org/Graphics/SVG/1.1/DTD/svg11.dtd">
<svg xmlns:xlink="http://www.w3.org/1999/xlink" width="720pt" height="432pt" viewBox="0 0 720 432" xmlns="http://www.w3.org/2000/svg" version="1.1">
 <metadata>
  <rdf:RDF xmlns:dc="http://purl.org/dc/elements/1.1/" xmlns:cc="http://creativecommons.org/ns#" xmlns:rdf="http://www.w3.org/1999/02/22-rdf-syntax-ns#">
   <cc:Work>
    <dc:type rdf:resource="http://purl.org/dc/dcmitype/StillImage"/>
    <dc:date>2022-12-16T10:31:17.533799</dc:date>
    <dc:format>image/svg+xml</dc:format>
    <dc:creator>
     <cc:Agent>
      <dc:title>Matplotlib v3.5.3, https://matplotlib.org/</dc:title>
     </cc:Agent>
    </dc:creator>
   </cc:Work>
  </rdf:RDF>
 </metadata>
 <defs>
  <style type="text/css">*{stroke-linejoin: round; stroke-linecap: butt}</style>
 </defs>
 <g id="figure_1">
  <g id="patch_1">
   <path d="M 0 432 
L 720 432 
L 720 0 
L 0 0 
z
" style="fill: #ffffff"/>
  </g>
  <g id="axes_1">
   <g id="patch_2">
    <path d="M 54 324 
L 684 324 
L 684 43.2 
L 54 43.2 
z
" style="fill: #ffffff"/>
   </g>
   <g id="matplotlib.axis_1">
    <g id="xtick_1">
     <g id="line2d_1">
      <defs>
       <path id="m53ae152dd8" d="M 0 0 
L 0 3.5 
" style="stroke: #000000; stroke-width: 0.8"/>
      </defs>
      <g>
       <use xlink:href="#m53ae152dd8" x="78.230769" y="324" style="stroke: #000000; stroke-width: 0.8"/>
      </g>
     </g>
     <g id="text_1">
      <!-- PCA -->
      <g transform="translate(70.289519 337.07875)scale(0.08 -0.08)">
       <defs>
        <path id="DejaVuSans-50" d="M 1259 4147 
L 1259 2394 
L 2053 2394 
Q 2494 2394 2734 2622 
Q 2975 2850 2975 3272 
Q 2975 3691 2734 3919 
Q 2494 4147 2053 4147 
L 1259 4147 
z
M 628 4666 
L 2053 4666 
Q 2838 4666 3239 4311 
Q 3641 3956 3641 3272 
Q 3641 2581 3239 2228 
Q 2838 1875 2053 1875 
L 1259 1875 
L 1259 0 
L 628 0 
L 628 4666 
z
" transform="scale(0.015625)"/>
        <path id="DejaVuSans-43" d="M 4122 4306 
L 4122 3641 
Q 3803 3938 3442 4084 
Q 3081 4231 2675 4231 
Q 1875 4231 1450 3742 
Q 1025 3253 1025 2328 
Q 1025 1406 1450 917 
Q 1875 428 2675 428 
Q 3081 428 3442 575 
Q 3803 722 4122 1019 
L 4122 359 
Q 3791 134 3420 21 
Q 3050 -91 2638 -91 
Q 1578 -91 968 557 
Q 359 1206 359 2328 
Q 359 3453 968 4101 
Q 1578 4750 2638 4750 
Q 3056 4750 3426 4639 
Q 3797 4528 4122 4306 
z
" transform="scale(0.015625)"/>
        <path id="DejaVuSans-41" d="M 2188 4044 
L 1331 1722 
L 3047 1722 
L 2188 4044 
z
M 1831 4666 
L 2547 4666 
L 4325 0 
L 3669 0 
L 3244 1197 
L 1141 1197 
L 716 0 
L 50 0 
L 1831 4666 
z
" transform="scale(0.015625)"/>
       </defs>
       <use xlink:href="#DejaVuSans-50"/>
       <use xlink:href="#DejaVuSans-43" x="60.302734"/>
       <use xlink:href="#DejaVuSans-41" x="130.126953"/>
      </g>
     </g>
    </g>
    <g id="xtick_2">
     <g id="line2d_2">
      <g>
       <use xlink:href="#m53ae152dd8" x="126.692308" y="324" style="stroke: #000000; stroke-width: 0.8"/>
      </g>
     </g>
     <g id="text_2">
      <!-- ICA -->
      <g transform="translate(119.982933 337.07875)scale(0.08 -0.08)">
       <defs>
        <path id="DejaVuSans-49" d="M 628 4666 
L 1259 4666 
L 1259 0 
L 628 0 
L 628 4666 
z
" transform="scale(0.015625)"/>
       </defs>
       <use xlink:href="#DejaVuSans-49"/>
       <use xlink:href="#DejaVuSans-43" x="29.492188"/>
       <use xlink:href="#DejaVuSans-41" x="99.316406"/>
      </g>
     </g>
    </g>
    <g id="xtick_3">
     <g id="line2d_3">
      <g>
       <use xlink:href="#m53ae152dd8" x="175.153846" y="324" style="stroke: #000000; stroke-width: 0.8"/>
      </g>
     </g>
     <g id="text_3">
      <!-- Isomap -->
      <g transform="translate(160.555721 337.07875)scale(0.08 -0.08)">
       <defs>
        <path id="DejaVuSans-73" d="M 2834 3397 
L 2834 2853 
Q 2591 2978 2328 3040 
Q 2066 3103 1784 3103 
Q 1356 3103 1142 2972 
Q 928 2841 928 2578 
Q 928 2378 1081 2264 
Q 1234 2150 1697 2047 
L 1894 2003 
Q 2506 1872 2764 1633 
Q 3022 1394 3022 966 
Q 3022 478 2636 193 
Q 2250 -91 1575 -91 
Q 1294 -91 989 -36 
Q 684 19 347 128 
L 347 722 
Q 666 556 975 473 
Q 1284 391 1588 391 
Q 1994 391 2212 530 
Q 2431 669 2431 922 
Q 2431 1156 2273 1281 
Q 2116 1406 1581 1522 
L 1381 1569 
Q 847 1681 609 1914 
Q 372 2147 372 2553 
Q 372 3047 722 3315 
Q 1072 3584 1716 3584 
Q 2034 3584 2315 3537 
Q 2597 3491 2834 3397 
z
" transform="scale(0.015625)"/>
        <path id="DejaVuSans-6f" d="M 1959 3097 
Q 1497 3097 1228 2736 
Q 959 2375 959 1747 
Q 959 1119 1226 758 
Q 1494 397 1959 397 
Q 2419 397 2687 759 
Q 2956 1122 2956 1747 
Q 2956 2369 2687 2733 
Q 2419 3097 1959 3097 
z
M 1959 3584 
Q 2709 3584 3137 3096 
Q 3566 2609 3566 1747 
Q 3566 888 3137 398 
Q 2709 -91 1959 -91 
Q 1206 -91 779 398 
Q 353 888 353 1747 
Q 353 2609 779 3096 
Q 1206 3584 1959 3584 
z
" transform="scale(0.015625)"/>
        <path id="DejaVuSans-6d" d="M 3328 2828 
Q 3544 3216 3844 3400 
Q 4144 3584 4550 3584 
Q 5097 3584 5394 3201 
Q 5691 2819 5691 2113 
L 5691 0 
L 5113 0 
L 5113 2094 
Q 5113 2597 4934 2840 
Q 4756 3084 4391 3084 
Q 3944 3084 3684 2787 
Q 3425 2491 3425 1978 
L 3425 0 
L 2847 0 
L 2847 2094 
Q 2847 2600 2669 2842 
Q 2491 3084 2119 3084 
Q 1678 3084 1418 2786 
Q 1159 2488 1159 1978 
L 1159 0 
L 581 0 
L 581 3500 
L 1159 3500 
L 1159 2956 
Q 1356 3278 1631 3431 
Q 1906 3584 2284 3584 
Q 2666 3584 2933 3390 
Q 3200 3197 3328 2828 
z
" transform="scale(0.015625)"/>
        <path id="DejaVuSans-61" d="M 2194 1759 
Q 1497 1759 1228 1600 
Q 959 1441 959 1056 
Q 959 750 1161 570 
Q 1363 391 1709 391 
Q 2188 391 2477 730 
Q 2766 1069 2766 1631 
L 2766 1759 
L 2194 1759 
z
M 3341 1997 
L 3341 0 
L 2766 0 
L 2766 531 
Q 2569 213 2275 61 
Q 1981 -91 1556 -91 
Q 1019 -91 701 211 
Q 384 513 384 1019 
Q 384 1609 779 1909 
Q 1175 2209 1959 2209 
L 2766 2209 
L 2766 2266 
Q 2766 2663 2505 2880 
Q 2244 3097 1772 3097 
Q 1472 3097 1187 3025 
Q 903 2953 641 2809 
L 641 3341 
Q 956 3463 1253 3523 
Q 1550 3584 1831 3584 
Q 2591 3584 2966 3190 
Q 3341 2797 3341 1997 
z
" transform="scale(0.015625)"/>
        <path id="DejaVuSans-70" d="M 1159 525 
L 1159 -1331 
L 581 -1331 
L 581 3500 
L 1159 3500 
L 1159 2969 
Q 1341 3281 1617 3432 
Q 1894 3584 2278 3584 
Q 2916 3584 3314 3078 
Q 3713 2572 3713 1747 
Q 3713 922 3314 415 
Q 2916 -91 2278 -91 
Q 1894 -91 1617 61 
Q 1341 213 1159 525 
z
M 3116 1747 
Q 3116 2381 2855 2742 
Q 2594 3103 2138 3103 
Q 1681 3103 1420 2742 
Q 1159 2381 1159 1747 
Q 1159 1113 1420 752 
Q 1681 391 2138 391 
Q 2594 391 2855 752 
Q 3116 1113 3116 1747 
z
" transform="scale(0.015625)"/>
       </defs>
       <use xlink:href="#DejaVuSans-49"/>
       <use xlink:href="#DejaVuSans-73" x="29.492188"/>
       <use xlink:href="#DejaVuSans-6f" x="81.591797"/>
       <use xlink:href="#DejaVuSans-6d" x="142.773438"/>
       <use xlink:href="#DejaVuSans-61" x="240.185547"/>
       <use xlink:href="#DejaVuSans-70" x="301.464844"/>
      </g>
     </g>
    </g>
    <g id="xtick_4">
     <g id="line2d_4">
      <g>
       <use xlink:href="#m53ae152dd8" x="223.615385" y="324" style="stroke: #000000; stroke-width: 0.8"/>
      </g>
     </g>
     <g id="text_4">
      <!-- Shallow AE -->
      <g transform="translate(201.61351 337.07875)scale(0.08 -0.08)">
       <defs>
        <path id="DejaVuSans-53" d="M 3425 4513 
L 3425 3897 
Q 3066 4069 2747 4153 
Q 2428 4238 2131 4238 
Q 1616 4238 1336 4038 
Q 1056 3838 1056 3469 
Q 1056 3159 1242 3001 
Q 1428 2844 1947 2747 
L 2328 2669 
Q 3034 2534 3370 2195 
Q 3706 1856 3706 1288 
Q 3706 609 3251 259 
Q 2797 -91 1919 -91 
Q 1588 -91 1214 -16 
Q 841 59 441 206 
L 441 856 
Q 825 641 1194 531 
Q 1563 422 1919 422 
Q 2459 422 2753 634 
Q 3047 847 3047 1241 
Q 3047 1584 2836 1778 
Q 2625 1972 2144 2069 
L 1759 2144 
Q 1053 2284 737 2584 
Q 422 2884 422 3419 
Q 422 4038 858 4394 
Q 1294 4750 2059 4750 
Q 2388 4750 2728 4690 
Q 3069 4631 3425 4513 
z
" transform="scale(0.015625)"/>
        <path id="DejaVuSans-68" d="M 3513 2113 
L 3513 0 
L 2938 0 
L 2938 2094 
Q 2938 2591 2744 2837 
Q 2550 3084 2163 3084 
Q 1697 3084 1428 2787 
Q 1159 2491 1159 1978 
L 1159 0 
L 581 0 
L 581 4863 
L 1159 4863 
L 1159 2956 
Q 1366 3272 1645 3428 
Q 1925 3584 2291 3584 
Q 2894 3584 3203 3211 
Q 3513 2838 3513 2113 
z
" transform="scale(0.015625)"/>
        <path id="DejaVuSans-6c" d="M 603 4863 
L 1178 4863 
L 1178 0 
L 603 0 
L 603 4863 
z
" transform="scale(0.015625)"/>
        <path id="DejaVuSans-77" d="M 269 3500 
L 844 3500 
L 1563 769 
L 2278 3500 
L 2956 3500 
L 3675 769 
L 4391 3500 
L 4966 3500 
L 4050 0 
L 3372 0 
L 2619 2869 
L 1863 0 
L 1184 0 
L 269 3500 
z
" transform="scale(0.015625)"/>
        <path id="DejaVuSans-20" transform="scale(0.015625)"/>
        <path id="DejaVuSans-45" d="M 628 4666 
L 3578 4666 
L 3578 4134 
L 1259 4134 
L 1259 2753 
L 3481 2753 
L 3481 2222 
L 1259 2222 
L 1259 531 
L 3634 531 
L 3634 0 
L 628 0 
L 628 4666 
z
" transform="scale(0.015625)"/>
       </defs>
       <use xlink:href="#DejaVuSans-53"/>
       <use xlink:href="#DejaVuSans-68" x="63.476562"/>
       <use xlink:href="#DejaVuSans-61" x="126.855469"/>
       <use xlink:href="#DejaVuSans-6c" x="188.134766"/>
       <use xlink:href="#DejaVuSans-6c" x="215.917969"/>
       <use xlink:href="#DejaVuSans-6f" x="243.701172"/>
       <use xlink:href="#DejaVuSans-77" x="304.882812"/>
       <use xlink:href="#DejaVuSans-20" x="386.669922"/>
       <use xlink:href="#DejaVuSans-41" x="418.457031"/>
       <use xlink:href="#DejaVuSans-45" x="486.865234"/>
      </g>
     </g>
    </g>
    <g id="xtick_5">
     <g id="line2d_5">
      <g>
       <use xlink:href="#m53ae152dd8" x="272.076923" y="324" style="stroke: #000000; stroke-width: 0.8"/>
      </g>
     </g>
     <g id="text_5">
      <!-- AE -->
      <g transform="translate(266.813173 337.07875)scale(0.08 -0.08)">
       <use xlink:href="#DejaVuSans-41"/>
       <use xlink:href="#DejaVuSans-45" x="68.408203"/>
      </g>
     </g>
    </g>
    <g id="xtick_6">
     <g id="line2d_6">
      <g>
       <use xlink:href="#m53ae152dd8" x="320.538462" y="324" style="stroke: #000000; stroke-width: 0.8"/>
      </g>
     </g>
     <g id="text_6">
      <!-- Tied AE -->
      <g transform="translate(305.573462 337.07875)scale(0.08 -0.08)">
       <defs>
        <path id="DejaVuSans-54" d="M -19 4666 
L 3928 4666 
L 3928 4134 
L 2272 4134 
L 2272 0 
L 1638 0 
L 1638 4134 
L -19 4134 
L -19 4666 
z
" transform="scale(0.015625)"/>
        <path id="DejaVuSans-69" d="M 603 3500 
L 1178 3500 
L 1178 0 
L 603 0 
L 603 3500 
z
M 603 4863 
L 1178 4863 
L 1178 4134 
L 603 4134 
L 603 4863 
z
" transform="scale(0.015625)"/>
        <path id="DejaVuSans-65" d="M 3597 1894 
L 3597 1613 
L 953 1613 
Q 991 1019 1311 708 
Q 1631 397 2203 397 
Q 2534 397 2845 478 
Q 3156 559 3463 722 
L 3463 178 
Q 3153 47 2828 -22 
Q 2503 -91 2169 -91 
Q 1331 -91 842 396 
Q 353 884 353 1716 
Q 353 2575 817 3079 
Q 1281 3584 2069 3584 
Q 2775 3584 3186 3129 
Q 3597 2675 3597 1894 
z
M 3022 2063 
Q 3016 2534 2758 2815 
Q 2500 3097 2075 3097 
Q 1594 3097 1305 2825 
Q 1016 2553 972 2059 
L 3022 2063 
z
" transform="scale(0.015625)"/>
        <path id="DejaVuSans-64" d="M 2906 2969 
L 2906 4863 
L 3481 4863 
L 3481 0 
L 2906 0 
L 2906 525 
Q 2725 213 2448 61 
Q 2172 -91 1784 -91 
Q 1150 -91 751 415 
Q 353 922 353 1747 
Q 353 2572 751 3078 
Q 1150 3584 1784 3584 
Q 2172 3584 2448 3432 
Q 2725 3281 2906 2969 
z
M 947 1747 
Q 947 1113 1208 752 
Q 1469 391 1925 391 
Q 2381 391 2643 752 
Q 2906 1113 2906 1747 
Q 2906 2381 2643 2742 
Q 2381 3103 1925 3103 
Q 1469 3103 1208 2742 
Q 947 2381 947 1747 
z
" transform="scale(0.015625)"/>
       </defs>
       <use xlink:href="#DejaVuSans-54"/>
       <use xlink:href="#DejaVuSans-69" x="57.958984"/>
       <use xlink:href="#DejaVuSans-65" x="85.742188"/>
       <use xlink:href="#DejaVuSans-64" x="147.265625"/>
       <use xlink:href="#DejaVuSans-20" x="210.742188"/>
       <use xlink:href="#DejaVuSans-41" x="242.529297"/>
       <use xlink:href="#DejaVuSans-45" x="310.9375"/>
      </g>
     </g>
    </g>
    <g id="xtick_7">
     <g id="line2d_7">
      <g>
       <use xlink:href="#m53ae152dd8" x="369" y="324" style="stroke: #000000; stroke-width: 0.8"/>
      </g>
     </g>
     <g id="text_7">
      <!-- PCA AE -->
      <g transform="translate(354.52375 337.07875)scale(0.08 -0.08)">
       <use xlink:href="#DejaVuSans-50"/>
       <use xlink:href="#DejaVuSans-43" x="60.302734"/>
       <use xlink:href="#DejaVuSans-41" x="130.126953"/>
       <use xlink:href="#DejaVuSans-20" x="198.535156"/>
       <use xlink:href="#DejaVuSans-41" x="230.322266"/>
       <use xlink:href="#DejaVuSans-45" x="298.730469"/>
      </g>
     </g>
    </g>
    <g id="xtick_8">
     <g id="line2d_8">
      <g>
       <use xlink:href="#m53ae152dd8" x="417.461538" y="324" style="stroke: #000000; stroke-width: 0.8"/>
      </g>
     </g>
     <g id="text_8">
      <!-- Pretrained AE -->
      <g transform="translate(390.258413 337.07875)scale(0.08 -0.08)">
       <defs>
        <path id="DejaVuSans-72" d="M 2631 2963 
Q 2534 3019 2420 3045 
Q 2306 3072 2169 3072 
Q 1681 3072 1420 2755 
Q 1159 2438 1159 1844 
L 1159 0 
L 581 0 
L 581 3500 
L 1159 3500 
L 1159 2956 
Q 1341 3275 1631 3429 
Q 1922 3584 2338 3584 
Q 2397 3584 2469 3576 
Q 2541 3569 2628 3553 
L 2631 2963 
z
" transform="scale(0.015625)"/>
        <path id="DejaVuSans-74" d="M 1172 4494 
L 1172 3500 
L 2356 3500 
L 2356 3053 
L 1172 3053 
L 1172 1153 
Q 1172 725 1289 603 
Q 1406 481 1766 481 
L 2356 481 
L 2356 0 
L 1766 0 
Q 1100 0 847 248 
Q 594 497 594 1153 
L 594 3053 
L 172 3053 
L 172 3500 
L 594 3500 
L 594 4494 
L 1172 4494 
z
" transform="scale(0.015625)"/>
        <path id="DejaVuSans-6e" d="M 3513 2113 
L 3513 0 
L 2938 0 
L 2938 2094 
Q 2938 2591 2744 2837 
Q 2550 3084 2163 3084 
Q 1697 3084 1428 2787 
Q 1159 2491 1159 1978 
L 1159 0 
L 581 0 
L 581 3500 
L 1159 3500 
L 1159 2956 
Q 1366 3272 1645 3428 
Q 1925 3584 2291 3584 
Q 2894 3584 3203 3211 
Q 3513 2838 3513 2113 
z
" transform="scale(0.015625)"/>
       </defs>
       <use xlink:href="#DejaVuSans-50"/>
       <use xlink:href="#DejaVuSans-72" x="58.552734"/>
       <use xlink:href="#DejaVuSans-65" x="97.416016"/>
       <use xlink:href="#DejaVuSans-74" x="158.939453"/>
       <use xlink:href="#DejaVuSans-72" x="198.148438"/>
       <use xlink:href="#DejaVuSans-61" x="239.261719"/>
       <use xlink:href="#DejaVuSans-69" x="300.541016"/>
       <use xlink:href="#DejaVuSans-6e" x="328.324219"/>
       <use xlink:href="#DejaVuSans-65" x="391.703125"/>
       <use xlink:href="#DejaVuSans-64" x="453.226562"/>
       <use xlink:href="#DejaVuSans-20" x="516.703125"/>
       <use xlink:href="#DejaVuSans-41" x="548.490234"/>
       <use xlink:href="#DejaVuSans-45" x="616.898438"/>
      </g>
     </g>
    </g>
    <g id="xtick_9">
     <g id="line2d_9">
      <g>
       <use xlink:href="#m53ae152dd8" x="465.923077" y="324" style="stroke: #000000; stroke-width: 0.8"/>
      </g>
     </g>
     <g id="text_9">
      <!-- LSTM AE -->
      <g transform="translate(448.725577 337.07875)scale(0.08 -0.08)">
       <defs>
        <path id="DejaVuSans-4c" d="M 628 4666 
L 1259 4666 
L 1259 531 
L 3531 531 
L 3531 0 
L 628 0 
L 628 4666 
z
" transform="scale(0.015625)"/>
        <path id="DejaVuSans-4d" d="M 628 4666 
L 1569 4666 
L 2759 1491 
L 3956 4666 
L 4897 4666 
L 4897 0 
L 4281 0 
L 4281 4097 
L 3078 897 
L 2444 897 
L 1241 4097 
L 1241 0 
L 628 0 
L 628 4666 
z
" transform="scale(0.015625)"/>
       </defs>
       <use xlink:href="#DejaVuSans-4c"/>
       <use xlink:href="#DejaVuSans-53" x="55.712891"/>
       <use xlink:href="#DejaVuSans-54" x="119.189453"/>
       <use xlink:href="#DejaVuSans-4d" x="180.273438"/>
       <use xlink:href="#DejaVuSans-20" x="266.552734"/>
       <use xlink:href="#DejaVuSans-41" x="298.339844"/>
       <use xlink:href="#DejaVuSans-45" x="366.748047"/>
      </g>
     </g>
    </g>
    <g id="xtick_10">
     <g id="line2d_10">
      <g>
       <use xlink:href="#m53ae152dd8" x="514.384615" y="324" style="stroke: #000000; stroke-width: 0.8"/>
      </g>
     </g>
     <g id="text_10">
      <!-- FT AE -->
      <g transform="translate(503.175865 337.07875)scale(0.08 -0.08)">
       <defs>
        <path id="DejaVuSans-46" d="M 628 4666 
L 3309 4666 
L 3309 4134 
L 1259 4134 
L 1259 2759 
L 3109 2759 
L 3109 2228 
L 1259 2228 
L 1259 0 
L 628 0 
L 628 4666 
z
" transform="scale(0.015625)"/>
       </defs>
       <use xlink:href="#DejaVuSans-46"/>
       <use xlink:href="#DejaVuSans-54" x="55.769531"/>
       <use xlink:href="#DejaVuSans-20" x="116.853516"/>
       <use xlink:href="#DejaVuSans-41" x="148.640625"/>
       <use xlink:href="#DejaVuSans-45" x="217.048828"/>
      </g>
     </g>
    </g>
    <g id="xtick_11">
     <g id="line2d_11">
      <g>
       <use xlink:href="#m53ae152dd8" x="562.846154" y="324" style="stroke: #000000; stroke-width: 0.8"/>
      </g>
     </g>
     <g id="text_11">
      <!-- WFT AE -->
      <g transform="translate(547.682404 337.07875)scale(0.08 -0.08)">
       <defs>
        <path id="DejaVuSans-57" d="M 213 4666 
L 850 4666 
L 1831 722 
L 2809 4666 
L 3519 4666 
L 4500 722 
L 5478 4666 
L 6119 4666 
L 4947 0 
L 4153 0 
L 3169 4050 
L 2175 0 
L 1381 0 
L 213 4666 
z
" transform="scale(0.015625)"/>
       </defs>
       <use xlink:href="#DejaVuSans-57"/>
       <use xlink:href="#DejaVuSans-46" x="98.876953"/>
       <use xlink:href="#DejaVuSans-54" x="154.646484"/>
       <use xlink:href="#DejaVuSans-20" x="215.730469"/>
       <use xlink:href="#DejaVuSans-41" x="247.517578"/>
       <use xlink:href="#DejaVuSans-45" x="315.925781"/>
      </g>
     </g>
    </g>
    <g id="xtick_12">
     <g id="line2d_12">
      <g>
       <use xlink:href="#m53ae152dd8" x="611.307692" y="324" style="stroke: #000000; stroke-width: 0.8"/>
      </g>
     </g>
     <g id="text_12">
      <!-- Orthogonal AE -->
      <g transform="translate(582.344567 337.07875)scale(0.08 -0.08)">
       <defs>
        <path id="DejaVuSans-4f" d="M 2522 4238 
Q 1834 4238 1429 3725 
Q 1025 3213 1025 2328 
Q 1025 1447 1429 934 
Q 1834 422 2522 422 
Q 3209 422 3611 934 
Q 4013 1447 4013 2328 
Q 4013 3213 3611 3725 
Q 3209 4238 2522 4238 
z
M 2522 4750 
Q 3503 4750 4090 4092 
Q 4678 3434 4678 2328 
Q 4678 1225 4090 567 
Q 3503 -91 2522 -91 
Q 1538 -91 948 565 
Q 359 1222 359 2328 
Q 359 3434 948 4092 
Q 1538 4750 2522 4750 
z
" transform="scale(0.015625)"/>
        <path id="DejaVuSans-67" d="M 2906 1791 
Q 2906 2416 2648 2759 
Q 2391 3103 1925 3103 
Q 1463 3103 1205 2759 
Q 947 2416 947 1791 
Q 947 1169 1205 825 
Q 1463 481 1925 481 
Q 2391 481 2648 825 
Q 2906 1169 2906 1791 
z
M 3481 434 
Q 3481 -459 3084 -895 
Q 2688 -1331 1869 -1331 
Q 1566 -1331 1297 -1286 
Q 1028 -1241 775 -1147 
L 775 -588 
Q 1028 -725 1275 -790 
Q 1522 -856 1778 -856 
Q 2344 -856 2625 -561 
Q 2906 -266 2906 331 
L 2906 616 
Q 2728 306 2450 153 
Q 2172 0 1784 0 
Q 1141 0 747 490 
Q 353 981 353 1791 
Q 353 2603 747 3093 
Q 1141 3584 1784 3584 
Q 2172 3584 2450 3431 
Q 2728 3278 2906 2969 
L 2906 3500 
L 3481 3500 
L 3481 434 
z
" transform="scale(0.015625)"/>
       </defs>
       <use xlink:href="#DejaVuSans-4f"/>
       <use xlink:href="#DejaVuSans-72" x="78.710938"/>
       <use xlink:href="#DejaVuSans-74" x="119.824219"/>
       <use xlink:href="#DejaVuSans-68" x="159.033203"/>
       <use xlink:href="#DejaVuSans-6f" x="222.412109"/>
       <use xlink:href="#DejaVuSans-67" x="283.59375"/>
       <use xlink:href="#DejaVuSans-6f" x="347.070312"/>
       <use xlink:href="#DejaVuSans-6e" x="408.251953"/>
       <use xlink:href="#DejaVuSans-61" x="471.630859"/>
       <use xlink:href="#DejaVuSans-6c" x="532.910156"/>
       <use xlink:href="#DejaVuSans-20" x="560.693359"/>
       <use xlink:href="#DejaVuSans-41" x="592.480469"/>
       <use xlink:href="#DejaVuSans-45" x="660.888672"/>
      </g>
     </g>
    </g>
    <g id="xtick_13">
     <g id="line2d_13">
      <g>
       <use xlink:href="#m53ae152dd8" x="659.769231" y="324" style="stroke: #000000; stroke-width: 0.8"/>
      </g>
     </g>
     <g id="text_13">
      <!-- Contractive AE -->
      <g transform="translate(630.087356 337.07875)scale(0.08 -0.08)">
       <defs>
        <path id="DejaVuSans-63" d="M 3122 3366 
L 3122 2828 
Q 2878 2963 2633 3030 
Q 2388 3097 2138 3097 
Q 1578 3097 1268 2742 
Q 959 2388 959 1747 
Q 959 1106 1268 751 
Q 1578 397 2138 397 
Q 2388 397 2633 464 
Q 2878 531 3122 666 
L 3122 134 
Q 2881 22 2623 -34 
Q 2366 -91 2075 -91 
Q 1284 -91 818 406 
Q 353 903 353 1747 
Q 353 2603 823 3093 
Q 1294 3584 2113 3584 
Q 2378 3584 2631 3529 
Q 2884 3475 3122 3366 
z
" transform="scale(0.015625)"/>
        <path id="DejaVuSans-76" d="M 191 3500 
L 800 3500 
L 1894 563 
L 2988 3500 
L 3597 3500 
L 2284 0 
L 1503 0 
L 191 3500 
z
" transform="scale(0.015625)"/>
       </defs>
       <use xlink:href="#DejaVuSans-43"/>
       <use xlink:href="#DejaVuSans-6f" x="69.824219"/>
       <use xlink:href="#DejaVuSans-6e" x="131.005859"/>
       <use xlink:href="#DejaVuSans-74" x="194.384766"/>
       <use xlink:href="#DejaVuSans-72" x="233.59375"/>
       <use xlink:href="#DejaVuSans-61" x="274.707031"/>
       <use xlink:href="#DejaVuSans-63" x="335.986328"/>
       <use xlink:href="#DejaVuSans-74" x="390.966797"/>
       <use xlink:href="#DejaVuSans-69" x="430.175781"/>
       <use xlink:href="#DejaVuSans-76" x="457.958984"/>
       <use xlink:href="#DejaVuSans-65" x="517.138672"/>
       <use xlink:href="#DejaVuSans-20" x="578.662109"/>
       <use xlink:href="#DejaVuSans-41" x="610.449219"/>
       <use xlink:href="#DejaVuSans-45" x="678.857422"/>
      </g>
     </g>
    </g>
    <g id="text_14">
     <!-- Feature Extraction Method -->
     <g transform="translate(302.653906 350.340937)scale(0.1 -0.1)">
      <defs>
       <path id="DejaVuSans-75" d="M 544 1381 
L 544 3500 
L 1119 3500 
L 1119 1403 
Q 1119 906 1312 657 
Q 1506 409 1894 409 
Q 2359 409 2629 706 
Q 2900 1003 2900 1516 
L 2900 3500 
L 3475 3500 
L 3475 0 
L 2900 0 
L 2900 538 
Q 2691 219 2414 64 
Q 2138 -91 1772 -91 
Q 1169 -91 856 284 
Q 544 659 544 1381 
z
M 1991 3584 
L 1991 3584 
z
" transform="scale(0.015625)"/>
       <path id="DejaVuSans-78" d="M 3513 3500 
L 2247 1797 
L 3578 0 
L 2900 0 
L 1881 1375 
L 863 0 
L 184 0 
L 1544 1831 
L 300 3500 
L 978 3500 
L 1906 2253 
L 2834 3500 
L 3513 3500 
z
" transform="scale(0.015625)"/>
      </defs>
      <use xlink:href="#DejaVuSans-46"/>
      <use xlink:href="#DejaVuSans-65" x="52.019531"/>
      <use xlink:href="#DejaVuSans-61" x="113.542969"/>
      <use xlink:href="#DejaVuSans-74" x="174.822266"/>
      <use xlink:href="#DejaVuSans-75" x="214.03125"/>
      <use xlink:href="#DejaVuSans-72" x="277.410156"/>
      <use xlink:href="#DejaVuSans-65" x="316.273438"/>
      <use xlink:href="#DejaVuSans-20" x="377.796875"/>
      <use xlink:href="#DejaVuSans-45" x="409.583984"/>
      <use xlink:href="#DejaVuSans-78" x="472.767578"/>
      <use xlink:href="#DejaVuSans-74" x="531.947266"/>
      <use xlink:href="#DejaVuSans-72" x="571.15625"/>
      <use xlink:href="#DejaVuSans-61" x="612.269531"/>
      <use xlink:href="#DejaVuSans-63" x="673.548828"/>
      <use xlink:href="#DejaVuSans-74" x="728.529297"/>
      <use xlink:href="#DejaVuSans-69" x="767.738281"/>
      <use xlink:href="#DejaVuSans-6f" x="795.521484"/>
      <use xlink:href="#DejaVuSans-6e" x="856.703125"/>
      <use xlink:href="#DejaVuSans-20" x="920.082031"/>
      <use xlink:href="#DejaVuSans-4d" x="951.869141"/>
      <use xlink:href="#DejaVuSans-65" x="1038.148438"/>
      <use xlink:href="#DejaVuSans-74" x="1099.671875"/>
      <use xlink:href="#DejaVuSans-68" x="1138.880859"/>
      <use xlink:href="#DejaVuSans-6f" x="1202.259766"/>
      <use xlink:href="#DejaVuSans-64" x="1263.441406"/>
     </g>
    </g>
   </g>
   <g id="matplotlib.axis_2">
    <g id="ytick_1">
     <g id="line2d_14">
      <path d="M 54 316.148828 
L 684 316.148828 
" clip-path="url(#p959366285e)" style="fill: none; stroke: #d3d3d3; stroke-opacity: 0.5; stroke-width: 0.8; stroke-linecap: square"/>
     </g>
     <g id="line2d_15">
      <defs>
       <path id="mf31d883167" d="M 0 0 
L -3.5 0 
" style="stroke: #000000; stroke-width: 0.8"/>
      </defs>
      <g>
       <use xlink:href="#mf31d883167" x="54" y="316.148828" style="stroke: #000000; stroke-width: 0.8"/>
      </g>
     </g>
     <g id="text_15">
      <!-- 0.2 -->
      <g transform="translate(31.096875 319.948047)scale(0.1 -0.1)">
       <defs>
        <path id="DejaVuSans-30" d="M 2034 4250 
Q 1547 4250 1301 3770 
Q 1056 3291 1056 2328 
Q 1056 1369 1301 889 
Q 1547 409 2034 409 
Q 2525 409 2770 889 
Q 3016 1369 3016 2328 
Q 3016 3291 2770 3770 
Q 2525 4250 2034 4250 
z
M 2034 4750 
Q 2819 4750 3233 4129 
Q 3647 3509 3647 2328 
Q 3647 1150 3233 529 
Q 2819 -91 2034 -91 
Q 1250 -91 836 529 
Q 422 1150 422 2328 
Q 422 3509 836 4129 
Q 1250 4750 2034 4750 
z
" transform="scale(0.015625)"/>
        <path id="DejaVuSans-2e" d="M 684 794 
L 1344 794 
L 1344 0 
L 684 0 
L 684 794 
z
" transform="scale(0.015625)"/>
        <path id="DejaVuSans-32" d="M 1228 531 
L 3431 531 
L 3431 0 
L 469 0 
L 469 531 
Q 828 903 1448 1529 
Q 2069 2156 2228 2338 
Q 2531 2678 2651 2914 
Q 2772 3150 2772 3378 
Q 2772 3750 2511 3984 
Q 2250 4219 1831 4219 
Q 1534 4219 1204 4116 
Q 875 4013 500 3803 
L 500 4441 
Q 881 4594 1212 4672 
Q 1544 4750 1819 4750 
Q 2544 4750 2975 4387 
Q 3406 4025 3406 3419 
Q 3406 3131 3298 2873 
Q 3191 2616 2906 2266 
Q 2828 2175 2409 1742 
Q 1991 1309 1228 531 
z
" transform="scale(0.015625)"/>
       </defs>
       <use xlink:href="#DejaVuSans-30"/>
       <use xlink:href="#DejaVuSans-2e" x="63.623047"/>
       <use xlink:href="#DejaVuSans-32" x="95.410156"/>
      </g>
     </g>
    </g>
    <g id="ytick_2">
     <g id="line2d_16">
      <path d="M 54 281.059794 
L 684 281.059794 
" clip-path="url(#p959366285e)" style="fill: none; stroke: #d3d3d3; stroke-opacity: 0.5; stroke-width: 0.8; stroke-linecap: square"/>
     </g>
     <g id="line2d_17">
      <g>
       <use xlink:href="#mf31d883167" x="54" y="281.059794" style="stroke: #000000; stroke-width: 0.8"/>
      </g>
     </g>
     <g id="text_16">
      <!-- 0.4 -->
      <g transform="translate(31.096875 284.859013)scale(0.1 -0.1)">
       <defs>
        <path id="DejaVuSans-34" d="M 2419 4116 
L 825 1625 
L 2419 1625 
L 2419 4116 
z
M 2253 4666 
L 3047 4666 
L 3047 1625 
L 3713 1625 
L 3713 1100 
L 3047 1100 
L 3047 0 
L 2419 0 
L 2419 1100 
L 313 1100 
L 313 1709 
L 2253 4666 
z
" transform="scale(0.015625)"/>
       </defs>
       <use xlink:href="#DejaVuSans-30"/>
       <use xlink:href="#DejaVuSans-2e" x="63.623047"/>
       <use xlink:href="#DejaVuSans-34" x="95.410156"/>
      </g>
     </g>
    </g>
    <g id="ytick_3">
     <g id="line2d_18">
      <path d="M 54 245.970759 
L 684 245.970759 
" clip-path="url(#p959366285e)" style="fill: none; stroke: #d3d3d3; stroke-opacity: 0.5; stroke-width: 0.8; stroke-linecap: square"/>
     </g>
     <g id="line2d_19">
      <g>
       <use xlink:href="#mf31d883167" x="54" y="245.970759" style="stroke: #000000; stroke-width: 0.8"/>
      </g>
     </g>
     <g id="text_17">
      <!-- 0.6 -->
      <g transform="translate(31.096875 249.769978)scale(0.1 -0.1)">
       <defs>
        <path id="DejaVuSans-36" d="M 2113 2584 
Q 1688 2584 1439 2293 
Q 1191 2003 1191 1497 
Q 1191 994 1439 701 
Q 1688 409 2113 409 
Q 2538 409 2786 701 
Q 3034 994 3034 1497 
Q 3034 2003 2786 2293 
Q 2538 2584 2113 2584 
z
M 3366 4563 
L 3366 3988 
Q 3128 4100 2886 4159 
Q 2644 4219 2406 4219 
Q 1781 4219 1451 3797 
Q 1122 3375 1075 2522 
Q 1259 2794 1537 2939 
Q 1816 3084 2150 3084 
Q 2853 3084 3261 2657 
Q 3669 2231 3669 1497 
Q 3669 778 3244 343 
Q 2819 -91 2113 -91 
Q 1303 -91 875 529 
Q 447 1150 447 2328 
Q 447 3434 972 4092 
Q 1497 4750 2381 4750 
Q 2619 4750 2861 4703 
Q 3103 4656 3366 4563 
z
" transform="scale(0.015625)"/>
       </defs>
       <use xlink:href="#DejaVuSans-30"/>
       <use xlink:href="#DejaVuSans-2e" x="63.623047"/>
       <use xlink:href="#DejaVuSans-36" x="95.410156"/>
      </g>
     </g>
    </g>
    <g id="ytick_4">
     <g id="line2d_20">
      <path d="M 54 210.881724 
L 684 210.881724 
" clip-path="url(#p959366285e)" style="fill: none; stroke: #d3d3d3; stroke-opacity: 0.5; stroke-width: 0.8; stroke-linecap: square"/>
     </g>
     <g id="line2d_21">
      <g>
       <use xlink:href="#mf31d883167" x="54" y="210.881724" style="stroke: #000000; stroke-width: 0.8"/>
      </g>
     </g>
     <g id="text_18">
      <!-- 0.8 -->
      <g transform="translate(31.096875 214.680943)scale(0.1 -0.1)">
       <defs>
        <path id="DejaVuSans-38" d="M 2034 2216 
Q 1584 2216 1326 1975 
Q 1069 1734 1069 1313 
Q 1069 891 1326 650 
Q 1584 409 2034 409 
Q 2484 409 2743 651 
Q 3003 894 3003 1313 
Q 3003 1734 2745 1975 
Q 2488 2216 2034 2216 
z
M 1403 2484 
Q 997 2584 770 2862 
Q 544 3141 544 3541 
Q 544 4100 942 4425 
Q 1341 4750 2034 4750 
Q 2731 4750 3128 4425 
Q 3525 4100 3525 3541 
Q 3525 3141 3298 2862 
Q 3072 2584 2669 2484 
Q 3125 2378 3379 2068 
Q 3634 1759 3634 1313 
Q 3634 634 3220 271 
Q 2806 -91 2034 -91 
Q 1263 -91 848 271 
Q 434 634 434 1313 
Q 434 1759 690 2068 
Q 947 2378 1403 2484 
z
M 1172 3481 
Q 1172 3119 1398 2916 
Q 1625 2713 2034 2713 
Q 2441 2713 2670 2916 
Q 2900 3119 2900 3481 
Q 2900 3844 2670 4047 
Q 2441 4250 2034 4250 
Q 1625 4250 1398 4047 
Q 1172 3844 1172 3481 
z
" transform="scale(0.015625)"/>
       </defs>
       <use xlink:href="#DejaVuSans-30"/>
       <use xlink:href="#DejaVuSans-2e" x="63.623047"/>
       <use xlink:href="#DejaVuSans-38" x="95.410156"/>
      </g>
     </g>
    </g>
    <g id="ytick_5">
     <g id="line2d_22">
      <path d="M 54 175.79269 
L 684 175.79269 
" clip-path="url(#p959366285e)" style="fill: none; stroke: #d3d3d3; stroke-opacity: 0.5; stroke-width: 0.8; stroke-linecap: square"/>
     </g>
     <g id="line2d_23">
      <g>
       <use xlink:href="#mf31d883167" x="54" y="175.79269" style="stroke: #000000; stroke-width: 0.8"/>
      </g>
     </g>
     <g id="text_19">
      <!-- 1.0 -->
      <g transform="translate(31.096875 179.591909)scale(0.1 -0.1)">
       <defs>
        <path id="DejaVuSans-31" d="M 794 531 
L 1825 531 
L 1825 4091 
L 703 3866 
L 703 4441 
L 1819 4666 
L 2450 4666 
L 2450 531 
L 3481 531 
L 3481 0 
L 794 0 
L 794 531 
z
" transform="scale(0.015625)"/>
       </defs>
       <use xlink:href="#DejaVuSans-31"/>
       <use xlink:href="#DejaVuSans-2e" x="63.623047"/>
       <use xlink:href="#DejaVuSans-30" x="95.410156"/>
      </g>
     </g>
    </g>
    <g id="ytick_6">
     <g id="line2d_24">
      <path d="M 54 140.703655 
L 684 140.703655 
" clip-path="url(#p959366285e)" style="fill: none; stroke: #d3d3d3; stroke-opacity: 0.5; stroke-width: 0.8; stroke-linecap: square"/>
     </g>
     <g id="line2d_25">
      <g>
       <use xlink:href="#mf31d883167" x="54" y="140.703655" style="stroke: #000000; stroke-width: 0.8"/>
      </g>
     </g>
     <g id="text_20">
      <!-- 1.2 -->
      <g transform="translate(31.096875 144.502874)scale(0.1 -0.1)">
       <use xlink:href="#DejaVuSans-31"/>
       <use xlink:href="#DejaVuSans-2e" x="63.623047"/>
       <use xlink:href="#DejaVuSans-32" x="95.410156"/>
      </g>
     </g>
    </g>
    <g id="ytick_7">
     <g id="line2d_26">
      <path d="M 54 105.61462 
L 684 105.61462 
" clip-path="url(#p959366285e)" style="fill: none; stroke: #d3d3d3; stroke-opacity: 0.5; stroke-width: 0.8; stroke-linecap: square"/>
     </g>
     <g id="line2d_27">
      <g>
       <use xlink:href="#mf31d883167" x="54" y="105.61462" style="stroke: #000000; stroke-width: 0.8"/>
      </g>
     </g>
     <g id="text_21">
      <!-- 1.4 -->
      <g transform="translate(31.096875 109.413839)scale(0.1 -0.1)">
       <use xlink:href="#DejaVuSans-31"/>
       <use xlink:href="#DejaVuSans-2e" x="63.623047"/>
       <use xlink:href="#DejaVuSans-34" x="95.410156"/>
      </g>
     </g>
    </g>
    <g id="ytick_8">
     <g id="line2d_28">
      <path d="M 54 70.525586 
L 684 70.525586 
" clip-path="url(#p959366285e)" style="fill: none; stroke: #d3d3d3; stroke-opacity: 0.5; stroke-width: 0.8; stroke-linecap: square"/>
     </g>
     <g id="line2d_29">
      <g>
       <use xlink:href="#mf31d883167" x="54" y="70.525586" style="stroke: #000000; stroke-width: 0.8"/>
      </g>
     </g>
     <g id="text_22">
      <!-- 1.6 -->
      <g transform="translate(31.096875 74.324805)scale(0.1 -0.1)">
       <use xlink:href="#DejaVuSans-31"/>
       <use xlink:href="#DejaVuSans-2e" x="63.623047"/>
       <use xlink:href="#DejaVuSans-36" x="95.410156"/>
      </g>
     </g>
    </g>
    <g id="text_23">
     <!-- Performance -->
     <g transform="translate(25.017187 215.282031)rotate(-90)scale(0.1 -0.1)">
      <defs>
       <path id="DejaVuSans-66" d="M 2375 4863 
L 2375 4384 
L 1825 4384 
Q 1516 4384 1395 4259 
Q 1275 4134 1275 3809 
L 1275 3500 
L 2222 3500 
L 2222 3053 
L 1275 3053 
L 1275 0 
L 697 0 
L 697 3053 
L 147 3053 
L 147 3500 
L 697 3500 
L 697 3744 
Q 697 4328 969 4595 
Q 1241 4863 1831 4863 
L 2375 4863 
z
" transform="scale(0.015625)"/>
      </defs>
      <use xlink:href="#DejaVuSans-50"/>
      <use xlink:href="#DejaVuSans-65" x="56.677734"/>
      <use xlink:href="#DejaVuSans-72" x="118.201172"/>
      <use xlink:href="#DejaVuSans-66" x="159.314453"/>
      <use xlink:href="#DejaVuSans-6f" x="194.519531"/>
      <use xlink:href="#DejaVuSans-72" x="255.701172"/>
      <use xlink:href="#DejaVuSans-6d" x="295.064453"/>
      <use xlink:href="#DejaVuSans-61" x="392.476562"/>
      <use xlink:href="#DejaVuSans-6e" x="453.755859"/>
      <use xlink:href="#DejaVuSans-63" x="517.134766"/>
      <use xlink:href="#DejaVuSans-65" x="572.115234"/>
     </g>
    </g>
   </g>
   <g id="patch_3">
    <path d="M 66.115385 228.645548 
L 90.346154 228.645548 
L 90.346154 206.232427 
L 66.115385 206.232427 
z
" clip-path="url(#p959366285e)" style="fill: #87cefa"/>
   </g>
   <g id="patch_4">
    <path d="M 114.576923 226.627929 
L 138.807692 226.627929 
L 138.807692 208.644799 
L 114.576923 208.644799 
z
" clip-path="url(#p959366285e)" style="fill: #00bfff"/>
   </g>
   <g id="patch_5">
    <path d="M 163.038462 245.576007 
L 187.269231 245.576007 
L 187.269231 166.274789 
L 163.038462 166.274789 
z
" clip-path="url(#p959366285e)" style="fill: #ee82ee"/>
   </g>
   <g id="patch_6">
    <path d="M 211.5 267.111903 
L 235.730769 267.111903 
L 235.730769 181.143768 
L 211.5 181.143768 
z
" clip-path="url(#p959366285e)" style="fill: #f08080"/>
   </g>
   <g id="patch_7">
    <path d="M 259.961538 267.331209 
L 284.192308 267.331209 
L 284.192308 186.670291 
L 259.961538 186.670291 
z
" clip-path="url(#p959366285e)" style="fill: #ff7f50"/>
   </g>
   <g id="patch_8">
    <path d="M 308.423077 242.725023 
L 332.653846 242.725023 
L 332.653846 182.942081 
L 308.423077 182.942081 
z
" clip-path="url(#p959366285e)" style="fill: #e9967a"/>
   </g>
   <g id="patch_9">
    <path d="M 356.884615 250.707779 
L 381.115385 250.707779 
L 381.115385 171.582006 
L 356.884615 171.582006 
z
" clip-path="url(#p959366285e)" style="fill: #fa8072"/>
   </g>
   <g id="patch_10">
    <path d="M 405.346154 248.953327 
L 429.576923 248.953327 
L 429.576923 185.617619 
L 405.346154 185.617619 
z
" clip-path="url(#p959366285e)" style="fill: #ffa07a"/>
   </g>
   <g id="patch_11">
    <path d="M 453.807692 252.374508 
L 478.038462 252.374508 
L 478.038462 189.959888 
L 453.807692 189.959888 
z
" clip-path="url(#p959366285e)" style="fill: #ff6347"/>
   </g>
   <g id="patch_12">
    <path d="M 502.269231 250.839363 
L 526.5 250.839363 
L 526.5 172.06448 
L 502.269231 172.06448 
z
" clip-path="url(#p959366285e)" style="fill: #cd5c5c"/>
   </g>
   <g id="patch_13">
    <path d="M 550.730769 247.944517 
L 574.961538 247.944517 
L 574.961538 176.582193 
L 550.730769 176.582193 
z
" clip-path="url(#p959366285e)" style="fill: #b22222"/>
   </g>
   <g id="patch_14">
    <path d="M 599.192308 243.558388 
L 623.423077 243.558388 
L 623.423077 168.994189 
L 599.192308 168.994189 
z
" clip-path="url(#p959366285e)" style="fill: #a52a2a"/>
   </g>
   <g id="patch_15">
    <path d="M 647.653846 245.576007 
L 671.884615 245.576007 
L 671.884615 166.274789 
L 647.653846 166.274789 
z
" clip-path="url(#p959366285e)" style="fill: #800000"/>
   </g>
   <g id="line2d_30">
    <path d="M 66.115385 228.645548 
L 90.346154 228.645548 
L 90.346154 206.232427 
L 66.115385 206.232427 
L 66.115385 228.645548 
" clip-path="url(#p959366285e)" style="fill: none; stroke: #000000; stroke-linecap: square"/>
   </g>
   <g id="line2d_31">
    <path d="M 78.230769 228.645548 
L 78.230769 251.40956 
" clip-path="url(#p959366285e)" style="fill: none; stroke: #000000; stroke-linecap: square"/>
   </g>
   <g id="line2d_32">
    <path d="M 78.230769 206.232427 
L 78.230769 185.96851 
" clip-path="url(#p959366285e)" style="fill: none; stroke: #000000; stroke-linecap: square"/>
   </g>
   <g id="line2d_33">
    <path d="M 72.173077 251.40956 
L 84.288462 251.40956 
" clip-path="url(#p959366285e)" style="fill: none; stroke: #000000; stroke-linecap: square"/>
   </g>
   <g id="line2d_34">
    <path d="M 72.173077 185.96851 
L 84.288462 185.96851 
" clip-path="url(#p959366285e)" style="fill: none; stroke: #000000; stroke-linecap: square"/>
   </g>
   <g id="line2d_35">
    <path d="M 114.576923 226.627929 
L 138.807692 226.627929 
L 138.807692 208.644799 
L 114.576923 208.644799 
L 114.576923 226.627929 
" clip-path="url(#p959366285e)" style="fill: none; stroke: #000000; stroke-linecap: square"/>
   </g>
   <g id="line2d_36">
    <path d="M 126.692308 226.627929 
L 126.692308 249.655108 
" clip-path="url(#p959366285e)" style="fill: none; stroke: #000000; stroke-linecap: square"/>
   </g>
   <g id="line2d_37">
    <path d="M 126.692308 208.644799 
L 126.692308 190.530084 
" clip-path="url(#p959366285e)" style="fill: none; stroke: #000000; stroke-linecap: square"/>
   </g>
   <g id="line2d_38">
    <path d="M 120.634615 249.655108 
L 132.75 249.655108 
" clip-path="url(#p959366285e)" style="fill: none; stroke: #000000; stroke-linecap: square"/>
   </g>
   <g id="line2d_39">
    <path d="M 120.634615 190.530084 
L 132.75 190.530084 
" clip-path="url(#p959366285e)" style="fill: none; stroke: #000000; stroke-linecap: square"/>
   </g>
   <g id="line2d_40">
    <path d="M 163.038462 245.576007 
L 187.269231 245.576007 
L 187.269231 166.274789 
L 163.038462 166.274789 
L 163.038462 245.576007 
" clip-path="url(#p959366285e)" style="fill: none; stroke: #000000; stroke-linecap: square"/>
   </g>
   <g id="line2d_41">
    <path d="M 175.153846 245.576007 
L 175.153846 309.832802 
" clip-path="url(#p959366285e)" style="fill: none; stroke: #000000; stroke-linecap: square"/>
   </g>
   <g id="line2d_42">
    <path d="M 175.153846 166.274789 
L 175.153846 55.963636 
" clip-path="url(#p959366285e)" style="fill: none; stroke: #000000; stroke-linecap: square"/>
   </g>
   <g id="line2d_43">
    <path d="M 169.096154 309.832802 
L 181.211538 309.832802 
" clip-path="url(#p959366285e)" style="fill: none; stroke: #000000; stroke-linecap: square"/>
   </g>
   <g id="line2d_44">
    <path d="M 169.096154 55.963636 
L 181.211538 55.963636 
" clip-path="url(#p959366285e)" style="fill: none; stroke: #000000; stroke-linecap: square"/>
   </g>
   <g id="line2d_45">
    <path d="M 211.5 267.111903 
L 235.730769 267.111903 
L 235.730769 181.143768 
L 211.5 181.143768 
L 211.5 267.111903 
" clip-path="url(#p959366285e)" style="fill: none; stroke: #000000; stroke-linecap: square"/>
   </g>
   <g id="line2d_46">
    <path d="M 223.615385 267.111903 
L 223.615385 309.481912 
" clip-path="url(#p959366285e)" style="fill: none; stroke: #000000; stroke-linecap: square"/>
   </g>
   <g id="line2d_47">
    <path d="M 223.615385 181.143768 
L 223.615385 68.244799 
" clip-path="url(#p959366285e)" style="fill: none; stroke: #000000; stroke-linecap: square"/>
   </g>
   <g id="line2d_48">
    <path d="M 217.557692 309.481912 
L 229.673077 309.481912 
" clip-path="url(#p959366285e)" style="fill: none; stroke: #000000; stroke-linecap: square"/>
   </g>
   <g id="line2d_49">
    <path d="M 217.557692 68.244799 
L 229.673077 68.244799 
" clip-path="url(#p959366285e)" style="fill: none; stroke: #000000; stroke-linecap: square"/>
   </g>
   <g id="line2d_50">
    <path d="M 259.961538 267.331209 
L 284.192308 267.331209 
L 284.192308 186.670291 
L 259.961538 186.670291 
L 259.961538 267.331209 
" clip-path="url(#p959366285e)" style="fill: none; stroke: #000000; stroke-linecap: square"/>
   </g>
   <g id="line2d_51">
    <path d="M 272.076923 267.331209 
L 272.076923 311.236364 
" clip-path="url(#p959366285e)" style="fill: none; stroke: #000000; stroke-linecap: square"/>
   </g>
   <g id="line2d_52">
    <path d="M 272.076923 186.670291 
L 272.076923 76.490722 
" clip-path="url(#p959366285e)" style="fill: none; stroke: #000000; stroke-linecap: square"/>
   </g>
   <g id="line2d_53">
    <path d="M 266.019231 311.236364 
L 278.134615 311.236364 
" clip-path="url(#p959366285e)" style="fill: none; stroke: #000000; stroke-linecap: square"/>
   </g>
   <g id="line2d_54">
    <path d="M 266.019231 76.490722 
L 278.134615 76.490722 
" clip-path="url(#p959366285e)" style="fill: none; stroke: #000000; stroke-linecap: square"/>
   </g>
   <g id="line2d_55">
    <path d="M 308.423077 242.725023 
L 332.653846 242.725023 
L 332.653846 182.942081 
L 308.423077 182.942081 
L 308.423077 242.725023 
" clip-path="url(#p959366285e)" style="fill: none; stroke: #000000; stroke-linecap: square"/>
   </g>
   <g id="line2d_56">
    <path d="M 320.538462 242.725023 
L 320.538462 304.218557 
" clip-path="url(#p959366285e)" style="fill: none; stroke: #000000; stroke-linecap: square"/>
   </g>
   <g id="line2d_57">
    <path d="M 320.538462 182.942081 
L 320.538462 93.333458 
" clip-path="url(#p959366285e)" style="fill: none; stroke: #000000; stroke-linecap: square"/>
   </g>
   <g id="line2d_58">
    <path d="M 314.480769 304.218557 
L 326.596154 304.218557 
" clip-path="url(#p959366285e)" style="fill: none; stroke: #000000; stroke-linecap: square"/>
   </g>
   <g id="line2d_59">
    <path d="M 314.480769 93.333458 
L 326.596154 93.333458 
" clip-path="url(#p959366285e)" style="fill: none; stroke: #000000; stroke-linecap: square"/>
   </g>
   <g id="line2d_60">
    <path d="M 356.884615 250.707779 
L 381.115385 250.707779 
L 381.115385 171.582006 
L 356.884615 171.582006 
L 356.884615 250.707779 
" clip-path="url(#p959366285e)" style="fill: none; stroke: #000000; stroke-linecap: square"/>
   </g>
   <g id="line2d_61">
    <path d="M 369 250.707779 
L 369 306.850234 
" clip-path="url(#p959366285e)" style="fill: none; stroke: #000000; stroke-linecap: square"/>
   </g>
   <g id="line2d_62">
    <path d="M 369 171.582006 
L 369 66.490347 
" clip-path="url(#p959366285e)" style="fill: none; stroke: #000000; stroke-linecap: square"/>
   </g>
   <g id="line2d_63">
    <path d="M 362.942308 306.850234 
L 375.057692 306.850234 
" clip-path="url(#p959366285e)" style="fill: none; stroke: #000000; stroke-linecap: square"/>
   </g>
   <g id="line2d_64">
    <path d="M 362.942308 66.490347 
L 375.057692 66.490347 
" clip-path="url(#p959366285e)" style="fill: none; stroke: #000000; stroke-linecap: square"/>
   </g>
   <g id="line2d_65">
    <path d="M 405.346154 248.953327 
L 429.576923 248.953327 
L 429.576923 185.617619 
L 405.346154 185.617619 
L 405.346154 248.953327 
" clip-path="url(#p959366285e)" style="fill: none; stroke: #000000; stroke-linecap: square"/>
   </g>
   <g id="line2d_66">
    <path d="M 417.461538 248.953327 
L 417.461538 306.850234 
" clip-path="url(#p959366285e)" style="fill: none; stroke: #000000; stroke-linecap: square"/>
   </g>
   <g id="line2d_67">
    <path d="M 417.461538 185.617619 
L 417.461538 94.210684 
" clip-path="url(#p959366285e)" style="fill: none; stroke: #000000; stroke-linecap: square"/>
   </g>
   <g id="line2d_68">
    <path d="M 411.403846 306.850234 
L 423.519231 306.850234 
" clip-path="url(#p959366285e)" style="fill: none; stroke: #000000; stroke-linecap: square"/>
   </g>
   <g id="line2d_69">
    <path d="M 411.403846 94.210684 
L 423.519231 94.210684 
" clip-path="url(#p959366285e)" style="fill: none; stroke: #000000; stroke-linecap: square"/>
   </g>
   <g id="line2d_70">
    <path d="M 453.807692 252.374508 
L 478.038462 252.374508 
L 478.038462 189.959888 
L 453.807692 189.959888 
L 453.807692 252.374508 
" clip-path="url(#p959366285e)" style="fill: none; stroke: #000000; stroke-linecap: square"/>
   </g>
   <g id="line2d_71">
    <path d="M 465.923077 252.374508 
L 465.923077 309.306467 
" clip-path="url(#p959366285e)" style="fill: none; stroke: #000000; stroke-linecap: square"/>
   </g>
   <g id="line2d_72">
    <path d="M 465.923077 189.959888 
L 465.923077 104.211059 
" clip-path="url(#p959366285e)" style="fill: none; stroke: #000000; stroke-linecap: square"/>
   </g>
   <g id="line2d_73">
    <path d="M 459.865385 309.306467 
L 471.980769 309.306467 
" clip-path="url(#p959366285e)" style="fill: none; stroke: #000000; stroke-linecap: square"/>
   </g>
   <g id="line2d_74">
    <path d="M 459.865385 104.211059 
L 471.980769 104.211059 
" clip-path="url(#p959366285e)" style="fill: none; stroke: #000000; stroke-linecap: square"/>
   </g>
   <g id="line2d_75">
    <path d="M 502.269231 250.839363 
L 526.5 250.839363 
L 526.5 172.06448 
L 502.269231 172.06448 
L 502.269231 250.839363 
" clip-path="url(#p959366285e)" style="fill: none; stroke: #000000; stroke-linecap: square"/>
   </g>
   <g id="line2d_76">
    <path d="M 514.384615 250.839363 
L 514.384615 302.814995 
" clip-path="url(#p959366285e)" style="fill: none; stroke: #000000; stroke-linecap: square"/>
   </g>
   <g id="line2d_77">
    <path d="M 514.384615 172.06448 
L 514.384615 74.73627 
" clip-path="url(#p959366285e)" style="fill: none; stroke: #000000; stroke-linecap: square"/>
   </g>
   <g id="line2d_78">
    <path d="M 508.326923 302.814995 
L 520.442308 302.814995 
" clip-path="url(#p959366285e)" style="fill: none; stroke: #000000; stroke-linecap: square"/>
   </g>
   <g id="line2d_79">
    <path d="M 508.326923 74.73627 
L 520.442308 74.73627 
" clip-path="url(#p959366285e)" style="fill: none; stroke: #000000; stroke-linecap: square"/>
   </g>
   <g id="line2d_80">
    <path d="M 550.730769 247.944517 
L 574.961538 247.944517 
L 574.961538 176.582193 
L 550.730769 176.582193 
L 550.730769 247.944517 
" clip-path="url(#p959366285e)" style="fill: none; stroke: #000000; stroke-linecap: square"/>
   </g>
   <g id="line2d_81">
    <path d="M 562.846154 247.944517 
L 562.846154 298.955201 
" clip-path="url(#p959366285e)" style="fill: none; stroke: #000000; stroke-linecap: square"/>
   </g>
   <g id="line2d_82">
    <path d="M 562.846154 176.582193 
L 562.846154 70.876476 
" clip-path="url(#p959366285e)" style="fill: none; stroke: #000000; stroke-linecap: square"/>
   </g>
   <g id="line2d_83">
    <path d="M 556.788462 298.955201 
L 568.903846 298.955201 
" clip-path="url(#p959366285e)" style="fill: none; stroke: #000000; stroke-linecap: square"/>
   </g>
   <g id="line2d_84">
    <path d="M 556.788462 70.876476 
L 568.903846 70.876476 
" clip-path="url(#p959366285e)" style="fill: none; stroke: #000000; stroke-linecap: square"/>
   </g>
   <g id="line2d_85">
    <path d="M 599.192308 243.558388 
L 623.423077 243.558388 
L 623.423077 168.994189 
L 599.192308 168.994189 
L 599.192308 243.558388 
" clip-path="url(#p959366285e)" style="fill: none; stroke: #000000; stroke-linecap: square"/>
   </g>
   <g id="line2d_86">
    <path d="M 611.307692 243.558388 
L 611.307692 308.780131 
" clip-path="url(#p959366285e)" style="fill: none; stroke: #000000; stroke-linecap: square"/>
   </g>
   <g id="line2d_87">
    <path d="M 611.307692 168.994189 
L 611.307692 57.718088 
" clip-path="url(#p959366285e)" style="fill: none; stroke: #000000; stroke-linecap: square"/>
   </g>
   <g id="line2d_88">
    <path d="M 605.25 308.780131 
L 617.365385 308.780131 
" clip-path="url(#p959366285e)" style="fill: none; stroke: #000000; stroke-linecap: square"/>
   </g>
   <g id="line2d_89">
    <path d="M 605.25 57.718088 
L 617.365385 57.718088 
" clip-path="url(#p959366285e)" style="fill: none; stroke: #000000; stroke-linecap: square"/>
   </g>
   <g id="line2d_90">
    <path d="M 647.653846 245.576007 
L 671.884615 245.576007 
L 671.884615 166.274789 
L 647.653846 166.274789 
L 647.653846 245.576007 
" clip-path="url(#p959366285e)" style="fill: none; stroke: #000000; stroke-linecap: square"/>
   </g>
   <g id="line2d_91">
    <path d="M 659.769231 245.576007 
L 659.769231 309.832802 
" clip-path="url(#p959366285e)" style="fill: none; stroke: #000000; stroke-linecap: square"/>
   </g>
   <g id="line2d_92">
    <path d="M 659.769231 166.274789 
L 659.769231 55.963636 
" clip-path="url(#p959366285e)" style="fill: none; stroke: #000000; stroke-linecap: square"/>
   </g>
   <g id="line2d_93">
    <path d="M 653.711538 309.832802 
L 665.826923 309.832802 
" clip-path="url(#p959366285e)" style="fill: none; stroke: #000000; stroke-linecap: square"/>
   </g>
   <g id="line2d_94">
    <path d="M 653.711538 55.963636 
L 665.826923 55.963636 
" clip-path="url(#p959366285e)" style="fill: none; stroke: #000000; stroke-linecap: square"/>
   </g>
   <g id="line2d_95">
    <path d="M 78.230769 217.872833 
" clip-path="url(#p959366285e)" style="fill: none; stroke: #ffffff; stroke-width: 1.5; stroke-linecap: square"/>
    <defs>
     <path id="m391596fdf1" d="M 0 -3 
L -0.673542 -0.927051 
L -2.85317 -0.927051 
L -1.089814 0.354102 
L -1.763356 2.427051 
L -0 1.145898 
L 1.763356 2.427051 
L 1.089814 0.354102 
L 2.85317 -0.927051 
L 0.673542 -0.927051 
z
" style="stroke: #000000; stroke-linejoin: bevel"/>
    </defs>
    <g clip-path="url(#p959366285e)">
     <use xlink:href="#m391596fdf1" x="78.230769" y="217.872833" style="fill: #ffffff; stroke: #000000; stroke-linejoin: bevel"/>
    </g>
   </g>
   <g id="line2d_96">
    <path d="M 126.692308 219.886639 
" clip-path="url(#p959366285e)" style="fill: none; stroke: #ffffff; stroke-width: 1.5; stroke-linecap: square"/>
    <g clip-path="url(#p959366285e)">
     <use xlink:href="#m391596fdf1" x="126.692308" y="219.886639" style="fill: #ffffff; stroke: #000000; stroke-linejoin: bevel"/>
    </g>
   </g>
   <g id="line2d_97">
    <path d="M 175.153846 200.925211 
" clip-path="url(#p959366285e)" style="fill: none; stroke: #ffffff; stroke-width: 1.5; stroke-linecap: square"/>
    <g clip-path="url(#p959366285e)">
     <use xlink:href="#m391596fdf1" x="175.153846" y="200.925211" style="fill: #ffffff; stroke: #000000; stroke-linejoin: bevel"/>
    </g>
   </g>
   <g id="line2d_98">
    <path d="M 223.615385 107.748568 
" clip-path="url(#p959366285e)" style="fill: none; stroke: #ffffff; stroke-width: 1.5; stroke-linecap: square"/>
    <g clip-path="url(#p959366285e)">
     <use xlink:href="#m391596fdf1" x="223.615385" y="107.748568" style="fill: #ffffff; stroke: #000000; stroke-linejoin: bevel"/>
    </g>
   </g>
   <g id="line2d_99">
    <path d="M 272.076923 143.754876 
" clip-path="url(#p959366285e)" style="fill: none; stroke: #ffffff; stroke-width: 1.5; stroke-linecap: square"/>
    <g clip-path="url(#p959366285e)">
     <use xlink:href="#m391596fdf1" x="272.076923" y="143.754876" style="fill: #ffffff; stroke: #000000; stroke-linejoin: bevel"/>
    </g>
   </g>
   <g id="line2d_100">
    <path d="M 320.538462 150.463746 
" clip-path="url(#p959366285e)" style="fill: none; stroke: #ffffff; stroke-width: 1.5; stroke-linecap: square"/>
    <g clip-path="url(#p959366285e)">
     <use xlink:href="#m391596fdf1" x="320.538462" y="150.463746" style="fill: #ffffff; stroke: #000000; stroke-linejoin: bevel"/>
    </g>
   </g>
   <g id="line2d_101">
    <path d="M 369 150.166375 
" clip-path="url(#p959366285e)" style="fill: none; stroke: #ffffff; stroke-width: 1.5; stroke-linecap: square"/>
    <g clip-path="url(#p959366285e)">
     <use xlink:href="#m391596fdf1" x="369" y="150.166375" style="fill: #ffffff; stroke: #000000; stroke-linejoin: bevel"/>
    </g>
   </g>
   <g id="line2d_102">
    <path d="M 417.461538 142.203428 
" clip-path="url(#p959366285e)" style="fill: none; stroke: #ffffff; stroke-width: 1.5; stroke-linecap: square"/>
    <g clip-path="url(#p959366285e)">
     <use xlink:href="#m391596fdf1" x="417.461538" y="142.203428" style="fill: #ffffff; stroke: #000000; stroke-linejoin: bevel"/>
    </g>
   </g>
   <g id="line2d_103">
    <path d="M 465.923077 164.318194 
" clip-path="url(#p959366285e)" style="fill: none; stroke: #ffffff; stroke-width: 1.5; stroke-linecap: square"/>
    <g clip-path="url(#p959366285e)">
     <use xlink:href="#m391596fdf1" x="465.923077" y="164.318194" style="fill: #ffffff; stroke: #000000; stroke-linejoin: bevel"/>
    </g>
   </g>
   <g id="line2d_104">
    <path d="M 514.384615 184.328479 
" clip-path="url(#p959366285e)" style="fill: none; stroke: #ffffff; stroke-width: 1.5; stroke-linecap: square"/>
    <g clip-path="url(#p959366285e)">
     <use xlink:href="#m391596fdf1" x="514.384615" y="184.328479" style="fill: #ffffff; stroke: #000000; stroke-linejoin: bevel"/>
    </g>
   </g>
   <g id="line2d_105">
    <path d="M 562.846154 191.8669 
" clip-path="url(#p959366285e)" style="fill: none; stroke: #ffffff; stroke-width: 1.5; stroke-linecap: square"/>
    <g clip-path="url(#p959366285e)">
     <use xlink:href="#m391596fdf1" x="562.846154" y="191.8669" style="fill: #ffffff; stroke: #000000; stroke-linejoin: bevel"/>
    </g>
   </g>
   <g id="line2d_106">
    <path d="M 611.307692 178.45488 
" clip-path="url(#p959366285e)" style="fill: none; stroke: #ffffff; stroke-width: 1.5; stroke-linecap: square"/>
    <g clip-path="url(#p959366285e)">
     <use xlink:href="#m391596fdf1" x="611.307692" y="178.45488" style="fill: #ffffff; stroke: #000000; stroke-linejoin: bevel"/>
    </g>
   </g>
   <g id="line2d_107">
    <path d="M 659.769231 200.925211 
" clip-path="url(#p959366285e)" style="fill: none; stroke: #ffffff; stroke-width: 1.5; stroke-linecap: square"/>
    <g clip-path="url(#p959366285e)">
     <use xlink:href="#m391596fdf1" x="659.769231" y="200.925211" style="fill: #ffffff; stroke: #000000; stroke-linejoin: bevel"/>
    </g>
   </g>
   <g id="line2d_108">
    <path d="M 66.115385 216.232802 
L 90.346154 216.232802 
" clip-path="url(#p959366285e)" style="fill: none; stroke: #000000; stroke-linecap: square"/>
   </g>
   <g id="line2d_109">
    <path d="M 114.576923 217.987254 
L 138.807692 217.987254 
" clip-path="url(#p959366285e)" style="fill: none; stroke: #000000; stroke-linecap: square"/>
   </g>
   <g id="line2d_110">
    <path d="M 163.038462 210.969447 
L 187.269231 210.969447 
" clip-path="url(#p959366285e)" style="fill: none; stroke: #000000; stroke-linecap: square"/>
   </g>
   <g id="line2d_111">
    <path d="M 211.5 230.005248 
L 235.730769 230.005248 
" clip-path="url(#p959366285e)" style="fill: none; stroke: #000000; stroke-linecap: square"/>
   </g>
   <g id="line2d_112">
    <path d="M 259.961538 226.408622 
L 284.192308 226.408622 
" clip-path="url(#p959366285e)" style="fill: none; stroke: #000000; stroke-linecap: square"/>
   </g>
   <g id="line2d_113">
    <path d="M 308.423077 213.77657 
L 332.653846 213.77657 
" clip-path="url(#p959366285e)" style="fill: none; stroke: #000000; stroke-linecap: square"/>
   </g>
   <g id="line2d_114">
    <path d="M 356.884615 207.021931 
L 381.115385 207.021931 
" clip-path="url(#p959366285e)" style="fill: none; stroke: #000000; stroke-linecap: square"/>
   </g>
   <g id="line2d_115">
    <path d="M 405.346154 218.425867 
L 429.576923 218.425867 
" clip-path="url(#p959366285e)" style="fill: none; stroke: #000000; stroke-linecap: square"/>
   </g>
   <g id="line2d_116">
    <path d="M 453.807692 218.074977 
L 478.038462 218.074977 
" clip-path="url(#p959366285e)" style="fill: none; stroke: #000000; stroke-linecap: square"/>
   </g>
   <g id="line2d_117">
    <path d="M 502.269231 211.232615 
L 526.5 211.232615 
" clip-path="url(#p959366285e)" style="fill: none; stroke: #000000; stroke-linecap: square"/>
   </g>
   <g id="line2d_118">
    <path d="M 550.730769 215.004686 
L 574.961538 215.004686 
" clip-path="url(#p959366285e)" style="fill: none; stroke: #000000; stroke-linecap: square"/>
   </g>
   <g id="line2d_119">
    <path d="M 599.192308 215.443299 
L 623.423077 215.443299 
" clip-path="url(#p959366285e)" style="fill: none; stroke: #000000; stroke-linecap: square"/>
   </g>
   <g id="line2d_120">
    <path d="M 647.653846 210.969447 
L 671.884615 210.969447 
" clip-path="url(#p959366285e)" style="fill: none; stroke: #000000; stroke-linecap: square"/>
   </g>
   <g id="patch_16">
    <path d="M 54 324 
L 54 43.2 
" style="fill: none; stroke: #000000; stroke-width: 0.8; stroke-linejoin: miter; stroke-linecap: square"/>
   </g>
   <g id="patch_17">
    <path d="M 684 324 
L 684 43.2 
" style="fill: none; stroke: #000000; stroke-width: 0.8; stroke-linejoin: miter; stroke-linecap: square"/>
   </g>
   <g id="patch_18">
    <path d="M 54 324 
L 684 324 
" style="fill: none; stroke: #000000; stroke-width: 0.8; stroke-linejoin: miter; stroke-linecap: square"/>
   </g>
   <g id="patch_19">
    <path d="M 54 43.2 
L 684 43.2 
" style="fill: none; stroke: #000000; stroke-width: 0.8; stroke-linejoin: miter; stroke-linecap: square"/>
   </g>
   <g id="text_24">
    <!-- DBS for all 95 simulations -->
    <g transform="translate(291.634687 37.2)scale(0.12 -0.12)">
     <defs>
      <path id="DejaVuSans-44" d="M 1259 4147 
L 1259 519 
L 2022 519 
Q 2988 519 3436 956 
Q 3884 1394 3884 2338 
Q 3884 3275 3436 3711 
Q 2988 4147 2022 4147 
L 1259 4147 
z
M 628 4666 
L 1925 4666 
Q 3281 4666 3915 4102 
Q 4550 3538 4550 2338 
Q 4550 1131 3912 565 
Q 3275 0 1925 0 
L 628 0 
L 628 4666 
z
" transform="scale(0.015625)"/>
      <path id="DejaVuSans-42" d="M 1259 2228 
L 1259 519 
L 2272 519 
Q 2781 519 3026 730 
Q 3272 941 3272 1375 
Q 3272 1813 3026 2020 
Q 2781 2228 2272 2228 
L 1259 2228 
z
M 1259 4147 
L 1259 2741 
L 2194 2741 
Q 2656 2741 2882 2914 
Q 3109 3088 3109 3444 
Q 3109 3797 2882 3972 
Q 2656 4147 2194 4147 
L 1259 4147 
z
M 628 4666 
L 2241 4666 
Q 2963 4666 3353 4366 
Q 3744 4066 3744 3513 
Q 3744 3084 3544 2831 
Q 3344 2578 2956 2516 
Q 3422 2416 3680 2098 
Q 3938 1781 3938 1306 
Q 3938 681 3513 340 
Q 3088 0 2303 0 
L 628 0 
L 628 4666 
z
" transform="scale(0.015625)"/>
      <path id="DejaVuSans-39" d="M 703 97 
L 703 672 
Q 941 559 1184 500 
Q 1428 441 1663 441 
Q 2288 441 2617 861 
Q 2947 1281 2994 2138 
Q 2813 1869 2534 1725 
Q 2256 1581 1919 1581 
Q 1219 1581 811 2004 
Q 403 2428 403 3163 
Q 403 3881 828 4315 
Q 1253 4750 1959 4750 
Q 2769 4750 3195 4129 
Q 3622 3509 3622 2328 
Q 3622 1225 3098 567 
Q 2575 -91 1691 -91 
Q 1453 -91 1209 -44 
Q 966 3 703 97 
z
M 1959 2075 
Q 2384 2075 2632 2365 
Q 2881 2656 2881 3163 
Q 2881 3666 2632 3958 
Q 2384 4250 1959 4250 
Q 1534 4250 1286 3958 
Q 1038 3666 1038 3163 
Q 1038 2656 1286 2365 
Q 1534 2075 1959 2075 
z
" transform="scale(0.015625)"/>
      <path id="DejaVuSans-35" d="M 691 4666 
L 3169 4666 
L 3169 4134 
L 1269 4134 
L 1269 2991 
Q 1406 3038 1543 3061 
Q 1681 3084 1819 3084 
Q 2600 3084 3056 2656 
Q 3513 2228 3513 1497 
Q 3513 744 3044 326 
Q 2575 -91 1722 -91 
Q 1428 -91 1123 -41 
Q 819 9 494 109 
L 494 744 
Q 775 591 1075 516 
Q 1375 441 1709 441 
Q 2250 441 2565 725 
Q 2881 1009 2881 1497 
Q 2881 1984 2565 2268 
Q 2250 2553 1709 2553 
Q 1456 2553 1204 2497 
Q 953 2441 691 2322 
L 691 4666 
z
" transform="scale(0.015625)"/>
     </defs>
     <use xlink:href="#DejaVuSans-44"/>
     <use xlink:href="#DejaVuSans-42" x="77.001953"/>
     <use xlink:href="#DejaVuSans-53" x="143.855469"/>
     <use xlink:href="#DejaVuSans-20" x="207.332031"/>
     <use xlink:href="#DejaVuSans-66" x="239.119141"/>
     <use xlink:href="#DejaVuSans-6f" x="274.324219"/>
     <use xlink:href="#DejaVuSans-72" x="335.505859"/>
     <use xlink:href="#DejaVuSans-20" x="376.619141"/>
     <use xlink:href="#DejaVuSans-61" x="408.40625"/>
     <use xlink:href="#DejaVuSans-6c" x="469.685547"/>
     <use xlink:href="#DejaVuSans-6c" x="497.46875"/>
     <use xlink:href="#DejaVuSans-20" x="525.251953"/>
     <use xlink:href="#DejaVuSans-39" x="557.039062"/>
     <use xlink:href="#DejaVuSans-35" x="620.662109"/>
     <use xlink:href="#DejaVuSans-20" x="684.285156"/>
     <use xlink:href="#DejaVuSans-73" x="716.072266"/>
     <use xlink:href="#DejaVuSans-69" x="768.171875"/>
     <use xlink:href="#DejaVuSans-6d" x="795.955078"/>
     <use xlink:href="#DejaVuSans-75" x="893.367188"/>
     <use xlink:href="#DejaVuSans-6c" x="956.746094"/>
     <use xlink:href="#DejaVuSans-61" x="984.529297"/>
     <use xlink:href="#DejaVuSans-74" x="1045.808594"/>
     <use xlink:href="#DejaVuSans-69" x="1085.017578"/>
     <use xlink:href="#DejaVuSans-6f" x="1112.800781"/>
     <use xlink:href="#DejaVuSans-6e" x="1173.982422"/>
     <use xlink:href="#DejaVuSans-73" x="1237.361328"/>
    </g>
   </g>
  </g>
 </g>
 <defs>
  <clipPath id="p959366285e">
   <rect x="54" y="43.2" width="630" height="280.8"/>
  </clipPath>
 </defs>
</svg>
